<svg xmlns="http://www.w3.org/2000/svg" version="1.1" xmlns:xlink="http://www.w3.org/1999/xlink" xmlns:svgjs="http://svgjs.dev/svgjs" width="1500" height="590" viewBox="0 0 1500 590"><g transform="matrix(1,0,0,1,-0.9090909090909918,-0.9257114426969224)"><svg viewBox="0 0 396 156" data-background-color="#ffffff" preserveAspectRatio="xMidYMid meet" height="590" width="1500" xmlns="http://www.w3.org/2000/svg" xmlns:xlink="http://www.w3.org/1999/xlink"><g id="tight-bounds" transform="matrix(1,0,0,1,0.2400000000000091,0.24476438145885027)"><svg viewBox="0 0 395.52 155.5104712370823" height="155.5104712370823" width="395.52"><g><svg viewBox="0 0 667.907574000501 262.60776086072593" height="155.5104712370823" width="395.52"><g transform="matrix(1,0,0,1,270.40997400050105,44.02680929193092)"><svg viewBox="0 0 397.4976 174.5541422768641" height="174.5541422768641" width="397.4976"><g id="textblocktransform"><svg viewBox="0 0 397.4976 174.5541422768641" height="174.5541422768641" width="397.4976" id="textblock"><g><rect width="397.4976" height="9.456966650591399" x="0" y="116.0068775565094" fill="#77d4fc" opacity="1" stroke-width="0" stroke="transparent" fill-opacity="1" class="rect-qz-0" data-fill-palette-color="primary" rx="1%" id="qz-0" data-palette-color="#77d4fc"></rect></g><g transform="matrix(1,0,0,1,0.9887999999999693,0)"><svg viewBox="0 0 395.52000000000004 104.86647181628392" height="104.86647181628392" width="395.52000000000004"><g transform="matrix(1,0,0,1,0,0)"><svg width="395.52000000000004" viewBox="1.5 -36.85 143.69 38.1" height="104.86647181628392" data-palette-color="#77d4fc"><path d="M21.05-19.15L25.5-23.9 23.7-30.35 16.35-31.65 11.2-30.85 12.05-19.75 21.05-19.15ZM32.5-9.45L35.65-6.15 29.45-0.6 25.55-1.25 22.9-13 18.2-16.45 11.7-15.5 11.85-3.1 15-2.05 15.4-0.15 4.65-0.3 4.55-1.65 7.5-2.8 6.9-29.25 5.1-31.2 1.5-31.6 1.65-34.3 5.75-34.4 7.85-33.55 9.1-34.65 22.7-34.45 29-28.65 28.1-20.3 23.75-17 27.45-13.45 27.8-4.45 28.9-4.05 32.5-9.45ZM58.85-1.25L59.05 0.4 50.6 0.4 50.45-0.9 52.05-1.5 48.1-8.85 46.7-11.7 41.85-1.85 44.55-0.9 44.35 0.5 35.75 0.4 35.65-1 37.3-1.45 44.95-14.1 38.35-23.1 35.9-23.9 35.95-25.3 44.65-25.3 44.8-24.05 42.65-23.2 47.35-15.55 51.75-23.45 50.15-24.35 50.45-25.5 58.85-24.65 58.45-23.05 55.3-22.25 49.35-12.5 56.45-2.1 58.85-1.25ZM71-3.1L80.3-3.5 81.9 0.3 69.84 1.1 62.09-3.95 61.3-26.45 67.14-34.9 76.84-36.85 83.05-32.65 76.84-24.45 75.34-25.6 78.4-31.4 75.7-33.8 69.09-32.25 66.39-25.25 66.39-5.85 71-3.1ZM100.64-13.1L96.39-12.95 90.79-9.2 90.64-3.6 92.64-2.55Q93.64-2.6 94.49-2.65L94.49-2.65Q95.19-2.7 95.77-2.78 96.34-2.85 96.34-2.95L96.34-2.95Q96.34-2.95 96.54-3.25 96.74-3.55 97.07-4.03 97.39-4.5 97.79-5.08 98.19-5.65 98.64-6.25L98.64-6.25Q99.64-7.65 100.99-9.45L100.99-9.45 100.64-13.1ZM87.94-22.8L93.19-26.45 104.49-23.8 104.69-3.25 108.94-2.95 108.99-0.65 102.79-0.05 100.69-4.45 98.09-0.35 89.64 1.25 86.54-2.5 86.74-10.1 95.29-15.65 100.59-16.35 100.99-21.8 92.64-22.9 90.19-18.65 87.44-21.55 87.94-22.8ZM122.94-1.95L123.19-0.05 112.64-0.25 112.49-1.55 116.09-2.6 116.09-32.6 113.44-32.05 113.64-35.35 119.99-35.5 119.54-2.65 122.94-1.95ZM143.99-4.1L145.19-0.2 137.44 0.2 127.69-3 127.29-15.35 131.54-23.9 138.59-26.3 143.99-23.2 141.29-16.15 139.74-16.95 141.29-21.6 139.34-23.2 139.34-23.2 133.49-20.45 130.79-14.25 131.54-5.3 137.44-3 143.99-4.1Z" opacity="1" transform="matrix(1,0,0,1,0,0)" fill="#77d4fc" class="wordmark-text-0" data-fill-palette-color="primary" id="text-0"></path></svg></g></svg></g><g transform="matrix(1,0,0,1,0,136.60424994732625)"><svg viewBox="0 0 232.209792 37.94989232953784" height="37.94989232953784" width="232.209792"><g transform="matrix(1,0,0,1,0,0)"><svg width="232.209792" viewBox="2.4 -36 223.93 36.6" height="37.94989232953784" data-palette-color="#4b91f1"><path d="M14.85 0.6L14.85 0.6Q11.3 0.6 8.47-1.03 5.65-2.65 4.03-5.58 2.4-8.5 2.4-12.4L2.4-12.4Q2.4-16.3 4.03-19.23 5.65-22.15 8.47-23.78 11.3-25.4 14.85-25.4L14.85-25.4Q19.25-25.4 22.28-23.1 25.3-20.8 26.1-16.95L26.1-16.95 21.8-16.95Q21.3-19.25 19.35-20.53 17.4-21.8 14.8-21.8L14.8-21.8Q12.7-21.8 10.85-20.75 9-19.7 7.85-17.6 6.7-15.5 6.7-12.4L6.7-12.4Q6.7-9.3 7.85-7.2 9-5.1 10.85-4.03 12.7-2.95 14.8-2.95L14.8-2.95Q17.4-2.95 19.35-4.23 21.3-5.5 21.8-7.85L21.8-7.85 26.1-7.85Q25.35-4.1 22.3-1.75 19.25 0.6 14.85 0.6ZM40.2 0.6L40.2 0.6Q37.1 0.6 35.05-0.45 33-1.5 32-3.25 31-5 31-7.05L31-7.05Q31-10.85 33.9-12.9 36.8-14.95 41.8-14.95L41.8-14.95 48.5-14.95 48.5-15.25Q48.5-18.5 46.8-20.18 45.1-21.85 42.25-21.85L42.25-21.85Q39.8-21.85 38.02-20.63 36.25-19.4 35.8-17.05L35.8-17.05 31.5-17.05Q31.75-19.75 33.32-21.6 34.9-23.45 37.25-24.43 39.6-25.4 42.25-25.4L42.25-25.4Q47.45-25.4 50.07-22.63 52.7-19.85 52.7-15.25L52.7-15.25 52.7 0 48.95 0 48.7-4.45Q47.65-2.35 45.62-0.88 43.6 0.6 40.2 0.6ZM40.85-2.95L40.85-2.95Q43.25-2.95 44.97-4.2 46.7-5.45 47.6-7.45 48.5-9.45 48.5-11.65L48.5-11.65 48.5-11.7 42.15-11.7Q38.45-11.7 36.92-10.43 35.4-9.15 35.4-7.25L35.4-7.25Q35.4-5.3 36.82-4.13 38.25-2.95 40.85-2.95ZM63.2 0L59 0 59-36 63.2-36 63.2 0ZM81.49 0.6L81.49 0.6Q77.94 0.6 75.12-1.03 72.29-2.65 70.67-5.58 69.04-8.5 69.04-12.4L69.04-12.4Q69.04-16.3 70.67-19.23 72.29-22.15 75.12-23.78 77.94-25.4 81.49-25.4L81.49-25.4Q85.89-25.4 88.92-23.1 91.94-20.8 92.74-16.95L92.74-16.95 88.44-16.95Q87.94-19.25 85.99-20.53 84.04-21.8 81.44-21.8L81.44-21.8Q79.34-21.8 77.49-20.75 75.64-19.7 74.49-17.6 73.34-15.5 73.34-12.4L73.34-12.4Q73.34-9.3 74.49-7.2 75.64-5.1 77.49-4.03 79.34-2.95 81.44-2.95L81.44-2.95Q84.04-2.95 85.99-4.23 87.94-5.5 88.44-7.85L88.44-7.85 92.74-7.85Q91.99-4.1 88.94-1.75 85.89 0.6 81.49 0.6ZM107.64 0.6L107.64 0.6Q103.24 0.6 100.64-2.08 98.04-4.75 98.04-10.3L98.04-10.3 98.04-24.8 102.24-24.8 102.24-10.75Q102.24-3 108.59-3L108.59-3Q111.84-3 113.97-5.33 116.09-7.65 116.09-11.95L116.09-11.95 116.09-24.8 120.29-24.8 120.29 0 116.49 0 116.19-4.45Q115.04-2.1 112.77-0.75 110.49 0.6 107.64 0.6ZM131.39 0L127.19 0 127.19-36 131.39-36 131.39 0ZM146.53 0.6L146.53 0.6Q143.44 0.6 141.39-0.45 139.34-1.5 138.34-3.25 137.34-5 137.34-7.05L137.34-7.05Q137.34-10.85 140.24-12.9 143.14-14.95 148.14-14.95L148.14-14.95 154.84-14.95 154.84-15.25Q154.84-18.5 153.14-20.18 151.44-21.85 148.59-21.85L148.59-21.85Q146.14-21.85 144.36-20.63 142.59-19.4 142.14-17.05L142.14-17.05 137.84-17.05Q138.09-19.75 139.66-21.6 141.24-23.45 143.59-24.43 145.94-25.4 148.59-25.4L148.59-25.4Q153.78-25.4 156.41-22.63 159.04-19.85 159.04-15.25L159.04-15.25 159.04 0 155.29 0 155.04-4.45Q153.99-2.35 151.96-0.88 149.94 0.6 146.53 0.6ZM147.19-2.95L147.19-2.95Q149.59-2.95 151.31-4.2 153.03-5.45 153.94-7.45 154.84-9.45 154.84-11.65L154.84-11.65 154.84-11.7 148.49-11.7Q144.78-11.7 143.26-10.43 141.74-9.15 141.74-7.25L141.74-7.25Q141.74-5.3 143.16-4.13 144.59-2.95 147.19-2.95ZM178.23 0L174.43 0Q171.03 0 169.08-1.65 167.13-3.3 167.13-7.6L167.13-7.6 167.13-21.25 162.83-21.25 162.83-24.8 167.13-24.8 167.68-30.75 171.33-30.75 171.33-24.8 178.63-24.8 178.63-21.25 171.33-21.25 171.33-7.6Q171.33-5.25 172.28-4.42 173.23-3.6 175.63-3.6L175.63-3.6 178.23-3.6 178.23 0ZM194.58 0.6L194.58 0.6Q191.08 0.6 188.28-1 185.48-2.6 183.86-5.53 182.23-8.45 182.23-12.4L182.23-12.4Q182.23-16.35 183.88-19.28 185.53-22.2 188.36-23.8 191.18-25.4 194.68-25.4L194.68-25.4Q198.18-25.4 200.98-23.8 203.78-22.2 205.41-19.28 207.03-16.35 207.03-12.4L207.03-12.4Q207.03-8.45 205.38-5.53 203.73-2.6 200.91-1 198.08 0.6 194.58 0.6ZM194.58-3L194.58-3Q196.73-3 198.58-4.05 200.43-5.1 201.58-7.2 202.73-9.3 202.73-12.4L202.73-12.4Q202.73-15.5 201.61-17.6 200.48-19.7 198.63-20.75 196.78-21.8 194.68-21.8L194.68-21.8Q192.53-21.8 190.68-20.75 188.83-19.7 187.68-17.6 186.53-15.5 186.53-12.4L186.53-12.4Q186.53-9.3 187.68-7.2 188.83-5.1 190.66-4.05 192.48-3 194.58-3ZM217.08 0L212.88 0 212.88-24.8 216.68-24.8 217.03-20.05Q218.18-22.5 220.53-23.95 222.88-25.4 226.33-25.4L226.33-25.4 226.33-21 225.18-21Q222.98-21 221.13-20.23 219.28-19.45 218.18-17.6 217.08-15.75 217.08-12.5L217.08-12.5 217.08 0Z" opacity="1" transform="matrix(1,0,0,1,0,0)" fill="#4b91f1" class="slogan-text-1" data-fill-palette-color="secondary" id="text-1"></path></svg></g></svg></g></svg></g></svg></g><g><svg viewBox="0 0 245.6535168 262.60776086072593" height="262.60776086072593" width="245.6535168"><g><svg xmlns="http://www.w3.org/2000/svg" xmlns:xlink="http://www.w3.org/1999/xlink" version="1.1" x="0" y="0" viewBox="3.002787763467867 1 57.997212236532135 62" style="enable-background:new 0 0 64 64;" xml:space="preserve" height="262.60776086072593" width="245.6535168" class="icon-icon-0" data-fill-palette-color="accent" id="icon-0"><g fill="#4b91f1" data-fill-palette-color="accent"><g fill="#4b91f1" data-fill-palette-color="accent"><path d="M30 19H10v-6h20V19zM12 17h16v-2H12V17z" fill="#4b91f1" data-fill-palette-color="accent"></path></g><g fill="#4b91f1" data-fill-palette-color="accent"><path d="M20 57c-2.757 0-5-2.243-5-5V42c0-2.757 2.243-5 5-5s5 2.243 5 5v10C25 54.757 22.757 57 20 57zM20 39c-1.654 0-3 1.346-3 3v10c0 1.654 1.346 3 3 3s3-1.346 3-3V42C23 40.346 21.654 39 20 39z" fill="#4b91f1" data-fill-palette-color="accent"></path></g><g fill="#4b91f1" data-fill-palette-color="accent"><rect x="16" y="46" width="8" height="2" fill="#4b91f1" data-fill-palette-color="accent"></rect></g><g fill="#4b91f1" data-fill-palette-color="accent"><path d="M15 11c-1.654 0-3-1.346-3-3s1.346-3 3-3 3 1.346 3 3S16.654 11 15 11zM15 7c-0.551 0-1 0.448-1 1s0.449 1 1 1 1-0.448 1-1S15.551 7 15 7z" fill="#4b91f1" data-fill-palette-color="accent"></path></g><g fill="#4b91f1" data-fill-palette-color="accent"><path d="M22 7c-1.654 0-3-1.346-3-3s1.346-3 3-3 3 1.346 3 3S23.654 7 22 7zM22 3c-0.551 0-1 0.448-1 1s0.449 1 1 1 1-0.448 1-1S22.551 3 22 3z" fill="#4b91f1" data-fill-palette-color="accent"></path></g><g fill="#4b91f1" data-fill-palette-color="accent"><path d="M30 11c-1.654 0-3-1.346-3-3s1.346-3 3-3 3 1.346 3 3S31.654 11 30 11zM30 7c-0.551 0-1 0.448-1 1s0.449 1 1 1 1-0.448 1-1S30.551 7 30 7z" fill="#4b91f1" data-fill-palette-color="accent"></path></g><g fill="#4b91f1" data-fill-palette-color="accent"><path d="M39 9c-1.654 0-3-1.346-3-3s1.346-3 3-3 3 1.346 3 3S40.654 9 39 9zM39 5c-0.551 0-1 0.448-1 1s0.449 1 1 1 1-0.448 1-1S39.551 5 39 5z" fill="#4b91f1" data-fill-palette-color="accent"></path></g><g fill="#4b91f1" data-fill-palette-color="accent"><path d="M58 39H32c-1.654 0-3-1.346-3-3v-2c0-1.654 1.346-3 3-3h26c1.654 0 3 1.346 3 3v2C61 37.654 59.654 39 58 39zM32 33c-0.551 0-1 0.448-1 1v2c0 0.552 0.449 1 1 1h26c0.551 0 1-0.448 1-1v-2c0-0.552-0.449-1-1-1H32z" fill="#4b91f1" data-fill-palette-color="accent"></path></g><g fill="#4b91f1" data-fill-palette-color="accent"><path d="M54 63H36c-2.757 0-5-2.243-5-5V38h2v20c0 1.654 1.346 3 3 3h18c1.654 0 3-1.346 3-3V38h2v20C59 60.757 56.757 63 54 63z" fill="#4b91f1" data-fill-palette-color="accent"></path></g><g fill="#4b91f1" data-fill-palette-color="accent"><path d="M55 59H35V41h20V59zM37 57h16V43H37V57z" fill="#4b91f1" data-fill-palette-color="accent"></path></g><g fill="#4b91f1" data-fill-palette-color="accent"><path d="M45 55c-3.309 0-6-2.243-6-5s2.691-5 6-5 6 2.243 6 5S48.309 55 45 55zM45 47c-2.206 0-4 1.346-4 3s1.794 3 4 3 4-1.346 4-3S47.206 47 45 47z" fill="#4b91f1" data-fill-palette-color="accent"></path></g><g fill="#4b91f1" data-fill-palette-color="accent"><rect x="40" y="49" width="10" height="2" fill="#4b91f1" data-fill-palette-color="accent"></rect></g><g fill="#4b91f1" data-fill-palette-color="accent"><path d="M20 62.998c-0.763 0-1.525-0.049-2.265-0.146-7.59-0.982-13.587-6.968-14.584-14.557-0.83-6.316 1.868-12.514 7.04-16.171C12.576 30.438 14 27.794 14 25.053V18h2v7.053c0 3.39-1.74 6.644-4.654 8.705-4.564 3.228-6.945 8.699-6.212 14.278 0.865 6.584 6.272 11.981 12.858 12.833 1.311 0.172 2.706 0.171 4.015 0.001 3.544-0.459 6.826-2.22 9.243-4.958l1.499 1.324c-2.737 3.102-6.461 5.096-10.485 5.617C21.525 62.949 20.763 62.998 20 62.998z" fill="#4b91f1" data-fill-palette-color="accent"></path></g><g fill="#4b91f1" data-fill-palette-color="accent"><path d="M29.422 34.34c-0.25-0.202-0.505-0.396-0.768-0.582C25.74 31.696 24 28.442 24 25.053V18h2v7.053c0 2.741 1.424 5.386 3.809 7.072 0.298 0.211 0.588 0.431 0.872 0.66L29.422 34.34z" fill="#4b91f1" data-fill-palette-color="accent"></path></g><g fill="#4b91f1" data-fill-palette-color="accent"><path d="M25 25c-2.983 0-5.007-0.689-6.633-1.243C17.174 23.351 16.144 23 15 23v-2c1.475 0 2.708 0.42 4.012 0.864C20.576 22.396 22.348 23 25 23V25z" fill="#4b91f1" data-fill-palette-color="accent"></path></g></g></svg></g></svg></g></svg></g><defs></defs></svg><rect width="395.52" height="155.5104712370823" fill="none" stroke="none" visibility="hidden"></rect></g></svg></g></svg>